<svg width="51" height="50" viewBox="0 0 51 50" fill="none" xmlns="http://www.w3.org/2000/svg">
<rect x="0.5" width="50" height="50" rx="25" fill="#9694FF"/>
<path d="M24.1255 10.4167C26.9586 10.4163 29.695 11.4468 31.8241 13.3158C33.9531 15.1849 35.3294 17.7648 35.6959 20.574L38.9772 25.7351C39.193 26.0749 39.1492 26.5809 38.649 26.7967L35.7922 28.0188V32.2917C35.7922 33.0653 35.4849 33.8072 34.9379 34.3541C34.3909 34.9011 33.649 35.2084 32.8755 35.2084H29.9603L29.9588 39.5834H16.8338V34.1963C16.8338 32.4755 16.198 30.8465 15.0182 29.3765C13.644 27.6607 12.7825 25.5916 12.533 23.4076C12.2835 21.2235 12.6562 19.0134 13.608 17.0319C14.5598 15.0504 16.0521 13.3781 17.9128 12.2077C19.7736 11.0374 21.9272 10.4165 24.1255 10.4167ZM23.3526 18.8211C22.8713 18.3561 22.2267 18.0988 21.5576 18.1045C20.8884 18.1101 20.2483 18.3784 19.775 18.8515C19.3017 19.3246 19.0332 19.9646 19.0273 20.6338C19.0213 21.3029 19.2784 21.9476 19.7432 22.429L24.1255 26.8128L28.5078 22.429C28.7515 22.1936 28.9458 21.9119 29.0795 21.6005C29.2132 21.2891 29.2836 20.9542 29.2864 20.6154C29.2893 20.2765 29.2247 19.9405 29.0963 19.6269C28.9679 19.3132 28.7783 19.0283 28.5387 18.7888C28.299 18.5492 28.014 18.3597 27.7004 18.2315C27.3867 18.1032 27.0506 18.0387 26.7118 18.0417C26.3729 18.0447 26.038 18.1152 25.7267 18.249C25.4153 18.3828 25.1338 18.5773 24.8984 18.8211L24.1255 19.594L23.3526 18.8211Z" fill="white"/>
</svg>
